<?xml version="1.0" encoding="utf-8"?>
<!-- Generator: Adobe Illustrator 21.0.0, SVG Export Plug-In . SVG Version: 6.00 Build 0)  -->
<svg version="1.1" id="Слой_1" xmlns="http://www.w3.org/2000/svg" xmlns:xlink="http://www.w3.org/1999/xlink" x="0px" y="0px"
	 viewBox="0 0 34.3 40.5" style="enable-background:new 0 0 34.3 40.5;" xml:space="preserve">
<style type="text/css">
	.st0{fill:#3A8244;}
	.st1{fill:#5599DB;}
	.st2{fill:#044FF3;}
</style>
<g>
	<path class="st2" d="M32.3,0.2c1.2,0.5,1.9,1.6,1.9,2.8v34.5c0,1.2-0.7,2.3-1.9,2.8c-0.4,0.2-0.8,0.2-1.2,0.2
		c-0.8,0-1.6-0.3-2.2-0.9L17.1,28.3L5.3,39.6c-0.6,0.6-1.4,0.9-2.2,0.9c-0.4,0-0.8-0.1-1.2-0.2C0.7,39.8,0,38.7,0,37.5V3
		c0-1.2,0.7-2.3,1.9-2.8C2.3,0.1,2.7,0,3.1,0c0.8,0,27.2,0,28.1,0C31.6,0,32,0.1,32.3,0.2z"/>
</g>
</svg>
