<?xml version="1.0" encoding="utf-8"?>
<!-- Generator: Adobe Illustrator 21.0.0, SVG Export Plug-In . SVG Version: 6.00 Build 0)  -->
<svg version="1.1" id="Слой_1" xmlns="http://www.w3.org/2000/svg" xmlns:xlink="http://www.w3.org/1999/xlink" x="0px" y="0px"
	 viewBox="0 0 50 42.9" style="enable-background:new 0 0 50 42.9;" xml:space="preserve">
<style type="text/css">
	.st0{fill:#3A8244;}
	.st1{fill:#5599DB;}
	.st2{fill:#044FF3;}
</style>
<g>
	<path class="st2" d="M50,22.3H0V11.6c0-2.5,2-4.5,4.5-4.5h9.8V2.7C14.3,1.2,15.5,0,17,0H33c1.5,0,2.7,1.2,2.7,2.7v4.5h9.8
		c2.5,0,4.5,2,4.5,4.5V22.3z M50,38.4c0,2.5-2,4.5-4.5,4.5H4.5c-2.5,0-4.5-2-4.5-4.5V25h18.8v4.5c0,1,0.8,1.8,1.8,1.8h8.9
		c1,0,1.8-0.8,1.8-1.8V25H50V38.4z M32.2,7.1V3.6H17.9v3.6H32.2z M28.6,28.6h-7.1V25h7.1V28.6z"/>
</g>
</svg>
